<svg width="274" height="274" viewBox="0 0 274 274" fill="none" xmlns="http://www.w3.org/2000/svg">
<path d="M138.711 90L144.213 92.6658C138.752 103.248 133.086 116.86 127.217 133.501C130.967 133.501 133.535 133.663 134.92 133.986L134.431 140.893C132.719 141.458 129.377 141.741 124.405 141.741C122.693 146.426 121.674 150.223 121.348 153.131C121.022 156.04 120.736 158.867 120.492 161.614C120.329 164.36 120.207 166.218 120.125 167.187H113.278C112.87 165.814 112.666 164.401 112.666 162.946C112.666 157.938 114.011 150.869 116.701 141.741C111.81 141.741 104.392 142.307 94.4473 143.437C94.0398 144.73 93.0208 147.153 91.3905 150.708C89.7601 154.182 88.1298 157.211 86.4995 159.796C84.9507 162.381 82.8312 165.208 80.1412 168.278C77.4511 171.348 74.6388 173.933 71.7042 176.033C63.308 182.011 55.1564 185 47.2493 185C43.9886 185 41.2986 183.99 39.1791 181.971C37.0597 179.951 36 177.406 36 174.337C36 166.582 40.4834 159.554 49.4502 153.253C58.4986 146.871 71.0113 141.781 86.9886 137.985C93.0208 120.536 101.499 108.095 112.422 100.663C100.602 100.825 90.8606 102.804 83.1981 106.601C75.5355 110.398 71.7042 115.244 71.7042 121.142C71.7042 123 71.9895 124.615 72.5602 125.989C73.1308 127.281 74.4758 129.341 76.5952 132.168L72.4379 136.046C68.8512 133.784 66.1204 131.037 64.2455 127.806C62.3706 124.575 61.4332 121.465 61.4332 118.476C61.4332 113.467 64.1232 108.863 69.5033 104.662C74.8834 100.381 81.5677 97.1088 89.5564 94.8469C97.545 92.5043 105.656 91.3329 113.889 91.3329C118.046 91.3329 120.899 91.656 122.448 92.3023C124.079 92.8678 124.894 93.9987 124.894 95.6952C124.894 97.3108 123.712 98.8457 121.348 100.3C111.158 106.601 102.966 118.557 96.7706 136.167C101.58 135.359 109.039 134.471 119.147 133.501C123.06 122.192 126.198 113.831 128.562 108.418C131.008 102.925 134.39 96.7857 138.711 90ZM57.0313 176.639C60.0474 176.639 63.5526 175.306 67.5469 172.64C71.6227 170.055 75.0057 166.662 77.6957 162.462C80.4673 158.18 82.8312 152.324 84.7876 144.892C73.9459 146.669 65.1829 149.819 58.4986 154.343C51.8957 158.786 48.5943 163.835 48.5943 169.49C48.5943 171.752 49.2464 173.489 50.5507 174.7C51.9365 175.993 54.0967 176.639 57.0313 176.639Z" fill="url(#paint0_linear_341_12)"/>
<path d="M233.498 90L239 92.6658C233.538 103.248 227.873 116.86 222.004 133.501C225.754 133.501 228.321 133.663 229.707 133.986L229.218 140.893C227.506 141.458 224.164 141.741 219.191 141.741C217.48 146.426 216.461 150.223 216.135 153.131C215.809 156.04 215.523 158.867 215.279 161.614C215.116 164.36 214.993 166.218 214.912 167.187H208.064C207.657 165.814 207.453 164.401 207.453 162.946C207.453 157.938 208.798 150.869 211.488 141.741C206.597 141.741 199.179 142.307 189.234 143.437C188.827 144.73 187.808 147.153 186.177 150.708C184.547 154.182 182.917 157.211 181.286 159.796C179.737 162.381 177.618 165.208 174.928 168.278C172.238 171.348 169.426 173.933 166.491 176.033C158.095 182.011 149.943 185 142.036 185C138.775 185 136.085 183.99 133.966 181.971C131.847 179.951 130.787 177.406 130.787 174.337C130.787 166.582 135.27 159.554 144.237 153.253C153.285 146.871 165.798 141.781 181.775 137.985C187.808 120.536 196.285 108.095 207.209 100.663C195.389 100.825 185.647 102.804 177.985 106.601C170.322 110.398 166.491 115.244 166.491 121.142C166.491 123 166.776 124.615 167.347 125.989C167.918 127.281 169.263 129.341 171.382 132.168L167.225 136.046C163.638 133.784 160.907 131.037 159.032 127.806C157.157 124.575 156.22 121.465 156.22 118.476C156.22 113.467 158.91 108.863 164.29 104.662C169.67 100.381 176.355 97.1088 184.343 94.8469C192.332 92.5043 200.443 91.3329 208.676 91.3329C212.833 91.3329 215.686 91.656 217.235 92.3023C218.865 92.8678 219.681 93.9987 219.681 95.6952C219.681 97.3108 218.499 98.8457 216.135 100.3C205.945 106.601 197.753 118.557 191.557 136.167C196.367 135.359 203.826 134.471 213.934 133.501C217.846 122.192 220.985 113.831 223.349 108.418C225.794 102.925 229.177 96.7857 233.498 90ZM151.818 176.639C154.834 176.639 158.339 175.306 162.334 172.64C166.41 170.055 169.792 166.662 172.483 162.462C175.254 158.18 177.618 152.324 179.574 144.892C168.733 146.669 159.97 149.819 153.285 154.343C146.683 158.786 143.381 163.835 143.381 169.49C143.381 171.752 144.033 173.489 145.338 174.7C146.723 175.993 148.883 176.639 151.818 176.639Z" fill="url(#paint1_linear_341_12)"/>
<defs>
<linearGradient id="paint0_linear_341_12" x1="36" y1="137.5" x2="239" y2="137.5" gradientUnits="userSpaceOnUse">
<stop stop-color="#9954F1"/>
<stop offset="1" stop-color="#E26EE5"/>
</linearGradient>
<linearGradient id="paint1_linear_341_12" x1="36" y1="137.5" x2="239" y2="137.5" gradientUnits="userSpaceOnUse">
<stop stop-color="#9954F1"/>
<stop offset="1" stop-color="#E26EE5"/>
</linearGradient>
</defs>
</svg>
