<svg width="118" height="118" viewBox="0 0 118 118" fill="none" xmlns="http://www.w3.org/2000/svg">
<g id="icon">
<path id="Vector" d="M83.5833 83.5834H73.75V113.083H63.9167V83.5834H53.4933L45.9217 93.0725L57.5742 104.676L50.5925 111.658L38.9892 100.005C37.2683 98.3334 36.285 96.0225 36.1375 93.6134C35.99 91.2042 36.7275 88.795 38.2517 86.9267L40.9067 83.5834H34.4167L44.25 63.9167V49.1667C41.2017 51.4775 38.7433 54.4275 37.0225 57.82C35.3017 61.2617 34.4167 64.9984 34.4167 68.8334H24.5833C24.5833 59.7055 28.2094 50.9515 34.6638 44.4971C41.1181 38.0427 49.8721 34.4167 59 34.4167C65.5392 34.4167 71.7833 31.8109 76.405 27.2384C80.9775 22.6167 83.5833 16.3725 83.5833 9.83337H93.4167C93.4167 16.3234 91.5483 22.715 88.0575 28.1725C84.5822 33.6674 79.6216 38.0655 73.75 40.8575V63.9167L83.5833 83.5834ZM68.8333 19.6667C68.8333 21.6334 68.2433 23.5017 67.1617 25.1242C66.08 26.7467 64.5558 28.025 62.7858 28.7625C60.9858 29.5033 59.0063 29.6932 57.0983 29.308C55.1902 28.9229 53.4394 27.9802 52.0675 26.5992C50.6908 25.2225 49.7567 23.5017 49.3633 21.5842C48.97 19.6667 49.1667 17.7 49.9042 15.93C50.6417 14.1109 51.92 12.5867 53.5425 11.505C55.165 10.4234 57.0333 9.83337 59 9.83337C61.6058 9.83337 64.1133 10.8659 65.9325 12.7342C67.8008 14.5534 68.8333 17.0609 68.8333 19.6667Z" fill="url(#paint0_linear_6_250)"/>
</g>
<defs>
<linearGradient id="paint0_linear_6_250" x1="24.5833" y1="61.4584" x2="93.4167" y2="61.4584" gradientUnits="userSpaceOnUse">
<stop stop-color="#9954F1"/>
<stop offset="1" stop-color="#E26EE5"/>
</linearGradient>
</defs>
</svg>
