<svg width="119" height="118" viewBox="0 0 119 118" fill="none" xmlns="http://www.w3.org/2000/svg">
<g id="icon">
<path id="Vector" d="M99.1667 29.5H59.5L49.5833 19.6666H19.8333C14.3792 19.6666 9.91666 24.0916 9.91666 29.5V88.5C9.91666 93.9083 14.3792 98.3333 19.8333 98.3333H99.1667C104.621 98.3333 109.083 93.9083 109.083 88.5V39.3333C109.083 33.925 104.621 29.5 99.1667 29.5ZM88.9525 83.5833L74.375 75.1266L59.7975 83.5833L63.665 67.2108L50.8229 56.1975L67.7308 54.7716L74.375 39.3333L81.0192 54.7716L97.9271 56.1975L85.085 67.2108L88.9525 83.5833Z" fill="url(#paint0_linear_6_254)"/>
</g>
<defs>
<linearGradient id="paint0_linear_6_254" x1="9.91666" y1="59" x2="109.083" y2="59" gradientUnits="userSpaceOnUse">
<stop stop-color="#9954F1"/>
<stop offset="1" stop-color="#E26EE5"/>
</linearGradient>
</defs>
</svg>
