<svg width="119" height="118" viewBox="0 0 119 118" fill="none" xmlns="http://www.w3.org/2000/svg">
<g id="fluent:person-feedback-32-regular">
<path id="Vector" d="M74.1891 58.5944C74.8585 58.8894 75.565 59 76.2344 59C77.7591 59 79.2466 58.3731 80.325 57.23L89.0269 47.9375H100.406C106.542 47.9375 111.563 42.9594 111.563 36.875V18.4375C111.563 12.3531 106.542 7.375 100.406 7.375H70.6563C64.5203 7.375 59.5 12.3531 59.5 18.4375V36.8381C59.5 42.9225 64.5203 47.9006 70.6563 47.9006V53.4319C70.6563 55.755 72.0322 57.7463 74.1891 58.5944ZM66.9375 18.4375C66.9375 16.4094 68.6109 14.75 70.6563 14.75H100.406C102.452 14.75 104.125 16.4094 104.125 18.4375V36.875C104.125 38.9031 102.452 40.5625 100.406 40.5625H85.7544L78.0938 48.7488V40.5625H70.6563C68.6109 40.5625 66.9375 38.9031 66.9375 36.875V18.4375ZM39.0469 66.375C28.7831 66.375 20.4531 58.115 20.4531 47.9375C20.4531 37.76 28.7831 29.5 39.0469 29.5C49.3106 29.5 57.6406 37.76 57.6406 47.9375C57.6406 58.115 49.3106 66.375 39.0469 66.375ZM39.0469 36.875C32.9109 36.875 27.8906 41.8531 27.8906 47.9375C27.8906 54.0219 32.9109 59 39.0469 59C45.1828 59 50.2031 54.0219 50.2031 47.9375C50.2031 41.8531 45.1828 36.875 39.0469 36.875ZM39.0469 110.588C28.2625 110.588 20.0069 107.638 14.4288 101.856C7.24785 94.4258 7.41519 84.9489 7.43379 84.016V83.9533C7.4375 78.3962 12.1231 73.75 17.9244 73.75H60.1694C65.9334 73.75 70.6563 78.3926 70.6563 84.1377V84.1746C70.6711 84.8457 70.8794 94.3889 63.665 101.893C58.0869 107.679 49.8313 110.625 39.0469 110.625V110.588ZM17.9244 81.1176C16.2509 81.1176 14.875 82.482 14.875 84.1414V84.1635C14.8638 84.6908 14.7709 91.6307 19.8581 96.8485C23.9488 101.085 30.4194 103.221 39.0469 103.221C47.6744 103.221 54.1078 101.082 58.2356 96.8485C63.4419 91.5053 63.2559 84.3589 63.2188 84.2852C63.2188 82.4783 61.8428 81.1176 60.1694 81.1176H17.9244Z" fill="url(#paint0_linear_84_23)"/>
</g>
<defs>
<linearGradient id="paint0_linear_84_23" x1="7.43025" y1="59" x2="111.563" y2="59" gradientUnits="userSpaceOnUse">
<stop stop-color="#9954F1"/>
<stop offset="1" stop-color="#E26EE5"/>
</linearGradient>
</defs>
</svg>
