<svg width="118" height="118" viewBox="0 0 118 118" fill="none" xmlns="http://www.w3.org/2000/svg">
<path d="M9.83331 98.3334H19.6666C22.3708 98.3334 24.5833 96.1209 24.5833 93.4167V49.1667C24.5833 46.4625 22.3708 44.25 19.6666 44.25H9.83331V98.3334ZM107.331 63.3267C107.872 62.0975 108.167 60.77 108.167 59.3934V54.0834C108.167 48.675 103.742 44.25 98.3333 44.25H71.2916L75.815 21.3875C76.0608 20.3059 75.9133 19.1259 75.4217 18.1425C74.3036 15.9281 72.8435 13.9038 71.095 12.1442L68.8333 9.83337L37.3175 41.3492C35.4491 43.2175 34.4166 45.725 34.4166 48.3309V86.8775C34.4297 89.9203 35.6475 92.8341 37.8037 94.981C39.9599 97.128 42.8788 98.3334 45.9216 98.3334H85.7958C89.2375 98.3334 92.4825 96.5142 94.2525 93.5642L107.331 63.3267Z" fill="url(#paint0_linear_6_246)"/>
<defs>
<linearGradient id="paint0_linear_6_246" x1="9.83331" y1="54.0834" x2="108.167" y2="54.0834" gradientUnits="userSpaceOnUse">
<stop stop-color="#9954F1"/>
<stop offset="1" stop-color="#E26EE5"/>
</linearGradient>
</defs>
</svg>
